<?xml version="1.0" standalone="no"?>
<!DOCTYPE svg PUBLIC "-//W3C//DTD SVG 20010904//EN"
 "http://www.w3.org/TR/2001/REC-SVG-20010904/DTD/svg10.dtd">
<svg version="1.0" xmlns="http://www.w3.org/2000/svg"
 width="512.000000pt" height="512.000000pt" viewBox="0 0 512.000000 512.000000"
 preserveAspectRatio="xMidYMid meet">
<metadata>
Created by potrace 1.14, written by Peter Selinger 2001-2017
</metadata>
<g transform="translate(0.000000,512.000000) scale(0.100000,-0.100000)"
fill="#000000" stroke="none">
<path d="M882 5101 c-29 -10 -70 -32 -90 -48 -47 -37 -99 -113 -112 -164 -16
-60 -15 -4606 2 -4662 25 -87 90 -161 177 -201 l46 -21 1655 0 1655 0 56 27
c66 32 122 91 155 162 l23 51 0 1955 1 1955 -58 60 c-31 34 -97 105 -147 159
-49 54 -106 116 -126 137 -20 21 -74 80 -120 130 -98 107 -125 136 -188 204
-25 28 -93 101 -150 163 l-103 112 -1312 0 c-1244 -1 -1314 -2 -1364 -19z
m2488 -641 c0 -364 1 -398 18 -429 37 -68 46 -70 416 -70 182 -1 343 -1 359
-1 l27 0 0 -1830 c0 -1744 -1 -1831 -18 -1848 -17 -17 -94 -18 -1613 -17
-1334 0 -1599 2 -1612 14 -16 12 -17 188 -17 2277 0 2161 1 2265 18 2282 17
17 79 18 1220 18 l1202 0 0 -396z m334 113 c35 -38 83 -90 107 -117 24 -27 60
-66 79 -86 75 -80 116 -125 122 -135 4 -7 -59 -10 -187 -10 l-194 0 1 207 c1
115 3 208 5 208 2 0 32 -30 67 -67z"/>
<path d="M1380 3713 c-59 -17 -87 -59 -76 -116 3 -18 16 -41 29 -52 22 -20 44
-20 1167 -23 847 -2 1152 1 1173 9 37 15 57 46 57 87 0 41 -24 78 -58 90 -26
9 -2261 14 -2292 5z"/>
<path d="M1371 3047 c-94 -24 -91 -161 4 -185 22 -6 2219 -9 2282 -3 6 1 25
13 42 27 26 21 31 33 31 68 0 34 -6 48 -30 71 l-30 29 -1135 0 c-624 1 -1148
-2 -1164 -7z"/>
<path d="M1347 2394 c-53 -29 -62 -97 -18 -146 l29 -33 1134 0 c623 0 1145 1
1160 3 76 11 104 107 49 163 l-29 29 -1149 0 c-1006 -1 -1151 -3 -1176 -16z"/>
<path d="M1352 1746 c-55 -29 -68 -103 -27 -151 l27 -30 1150 -2 c1243 -2
1190 -4 1219 49 28 52 1 120 -54 137 -49 16 -2285 13 -2315 -3z"/>
</g>
</svg>
